

<svg width="842" height="739" viewBox="0 0 842 739" fill="none" xmlns="http://www.w3.org/2000/svg">
<g id="undraw_Beer_celebration_cefj 1">
<g id="Cup">
<path id="Vector" d="M708.033 297.524L694.31 219.725L411.673 269.582L465.553 575.023C468.126 589.609 476.387 602.574 488.52 611.068C500.652 619.563 515.662 622.889 530.247 620.316L702.897 589.861C710.119 588.587 717.019 585.903 723.203 581.963C729.388 578.022 734.736 572.902 738.942 566.894C743.148 560.887 746.129 554.11 747.716 546.95C749.302 539.791 749.463 532.389 748.189 525.167L741.735 488.574C767.069 484.105 789.591 469.755 804.346 448.68C819.1 427.606 824.878 401.533 820.409 376.198C815.94 350.864 801.59 328.342 780.515 313.587C759.441 298.833 733.368 293.055 708.033 297.524V297.524ZM737.739 465.924L712.029 320.174C721.599 318.485 731.409 318.698 740.897 320.8C750.385 322.903 759.366 326.853 767.327 332.426C775.289 338 782.074 345.087 787.297 353.283C792.519 361.478 796.076 370.623 797.764 380.193C799.452 389.764 799.239 399.573 797.136 409.061C795.033 418.549 791.082 427.53 785.508 435.491C779.934 443.452 772.847 450.237 764.65 455.458C756.454 460.68 747.31 464.236 737.739 465.924V465.924Z" fill="#9A9A9A"/>
<path id="Vector_2" d="M1.49106 277.198C-2.97796 302.533 2.80028 328.606 17.5546 349.68C32.309 370.755 54.8308 385.105 80.1657 389.574L73.7108 426.167C71.138 440.752 74.4645 455.762 82.9585 467.894C91.4525 480.027 104.418 488.288 119.003 490.861L291.653 521.316C298.875 522.59 306.277 522.429 313.436 520.842C320.596 519.256 327.373 516.274 333.38 512.068C339.388 507.863 344.508 502.515 348.449 496.33C352.389 490.146 355.073 483.245 356.347 476.023L410.227 170.582L127.59 120.725L113.867 198.524C88.5319 194.055 62.4594 199.833 41.3849 214.587C20.3103 229.342 5.96011 251.864 1.49106 277.198V277.198ZM24.1414 281.194C25.8295 271.624 29.3861 262.48 34.608 254.284C39.83 246.089 46.615 239.002 54.5758 233.429C62.5366 227.855 71.5171 223.905 81.0048 221.802C90.4924 219.699 100.301 219.486 109.871 221.174L84.1612 366.924C64.8335 363.515 47.6519 352.567 36.396 336.489C25.1401 320.412 20.732 300.522 24.1414 281.194V281.194Z" fill="#9A9A9A"/>
</g>
<g id="Bubble">
<path id="Vector_3" d="M699.961 179.459C693.635 157.474 622.549 159.138 541.187 183.177C459.824 207.215 398.994 244.525 405.321 266.511C409.179 279.92 437.134 284.527 476.811 280.63C475.416 286.56 476.128 292.798 478.823 298.247C481.518 303.697 486.023 308.009 491.546 310.426C497.069 312.842 503.255 313.209 509.018 311.46C514.781 309.712 519.75 305.96 523.053 300.866C532.579 320.493 548.233 332.269 561.634 328.31C576.301 323.977 583.252 302.282 578.691 277.919C586.079 283.773 594.417 286.23 602.15 283.945C611.579 281.159 618.027 271.941 620.407 259.875C626.35 263.095 632.639 264.139 638.572 262.386C646.175 260.14 651.844 253.714 655.003 244.983C661.277 262.289 675.735 273.003 688.495 269.232C702.056 265.226 708.561 246.383 703.026 227.146C700.087 216.931 694.344 208.659 687.573 203.747C697.333 194.734 701.942 186.345 699.961 179.459Z" fill="white"/>
<path id="Vector_4" opacity="0.03" d="M116.039 90.4116C122.365 68.4259 193.451 70.0902 274.813 94.1289C356.176 118.168 417.006 155.478 410.679 177.463C406.821 190.872 378.866 195.479 339.189 191.582C340.584 197.512 339.872 203.75 337.177 209.199C334.481 214.649 329.977 218.961 324.454 221.378C318.931 223.795 312.745 224.161 306.982 222.412C301.219 220.664 296.25 216.913 292.947 211.818C283.421 231.445 267.767 243.222 254.366 239.262C239.699 234.929 232.748 213.234 237.309 188.871C229.921 194.726 221.583 197.182 213.85 194.897C204.421 192.111 197.973 182.894 195.593 170.827C189.65 174.047 183.361 175.091 177.428 173.338C169.825 171.092 164.156 164.666 160.997 155.935C154.723 173.241 140.265 183.955 127.505 180.185C113.944 176.178 107.438 157.335 112.974 138.098C115.913 127.883 121.656 119.612 128.427 114.699C118.667 105.686 114.057 97.2969 116.039 90.4116Z" fill="black"/>
<path id="Vector_5" d="M140.551 248.299L355.333 286.691L378.991 150.789L164.21 112.397L140.551 248.299Z" fill="#FFFAFA"/>
<path id="Vector_6" d="M118.902 80.4594C125.228 58.4738 196.314 60.1381 277.677 84.1767C359.04 108.215 419.869 145.525 413.543 167.511C409.685 180.92 381.73 185.527 342.053 181.63C343.448 187.56 342.735 193.798 340.04 199.247C337.345 204.697 332.84 209.009 327.318 211.426C321.795 213.842 315.608 214.209 309.846 212.46C304.083 210.712 299.113 206.96 295.81 201.866C286.284 221.493 270.631 233.269 257.229 229.31C242.562 224.977 235.612 203.282 240.172 178.919C232.785 184.773 224.446 187.23 216.713 184.945C207.285 182.159 200.836 172.941 198.457 160.875C192.513 164.095 186.225 165.139 180.291 163.386C172.689 161.14 167.019 154.714 163.861 145.983C157.586 163.289 143.129 174.003 130.368 170.232C116.808 166.226 110.302 147.383 115.837 128.146C118.776 117.931 124.52 109.659 131.29 104.747C121.531 95.7336 116.921 87.3448 118.902 80.4594Z" fill="white"/>
<path id="Vector_7" d="M653.867 201.384L439.087 239.776L462.745 375.677L677.525 337.286L653.867 201.384Z" fill="white"/>
<path id="Vector_8" opacity="0.03" d="M699.639 179.844C693.313 157.858 622.227 159.522 540.865 183.561C459.502 207.599 398.673 244.909 404.999 266.895C408.857 280.304 436.812 284.911 476.489 281.014C475.094 286.944 475.806 293.182 478.501 298.631C481.196 304.081 485.701 308.393 491.224 310.81C496.747 313.226 502.933 313.593 508.696 311.844C514.459 310.096 519.428 306.344 522.731 301.25C532.257 320.877 547.911 332.654 561.312 328.694C575.979 324.361 582.93 302.666 578.369 278.303C585.757 284.158 594.095 286.614 601.828 284.329C611.257 281.543 617.705 272.326 620.085 260.259C626.028 263.479 632.317 264.523 638.25 262.77C645.853 260.524 651.522 254.098 654.681 245.367C660.955 262.673 675.413 273.387 688.173 269.617C701.734 265.61 708.239 246.767 702.704 227.53C699.765 217.315 694.022 209.043 687.251 204.131C697.011 195.118 701.621 186.729 699.639 179.844Z" fill="black"/>
</g>
<g id="Alcohol">
<path id="Vector_9" d="M452.841 323.61C452.841 323.61 500.431 302.387 550.547 323.503C600.662 344.62 668.773 285.996 668.773 285.996L680.313 350.596L529.564 397.795L485.481 393.535L452.841 323.61Z" fill="#C2B9A0"/>
<path id="Vector_10" opacity="0.05" d="M452.841 323.61C452.841 323.61 500.431 302.387 550.547 323.503C600.662 344.62 668.773 285.996 668.773 285.996L680.313 350.596L529.564 397.795L485.481 393.535L452.841 323.61Z" fill="#D0C2C2"/>
<path id="Vector_11" d="M711 522.386L495.068 560L452.841 323.61C525.196 361.945 597.173 349.407 668.773 285.996L711 522.386Z" fill="#C2B9A0"/>
<path id="Vector_12" d="M367.159 226.614C367.159 226.614 319.569 205.391 269.453 226.507C219.337 247.624 151.227 189 151.227 189L139.687 253.6L290.436 300.799L334.519 296.539L367.159 226.614Z" fill="#C2B9A0"/>
<path id="Vector_13" opacity="0.05" d="M367.159 226.614C367.159 226.614 319.569 205.391 269.453 226.507C219.337 247.624 151.227 189 151.227 189L139.687 253.6L290.436 300.799L334.519 296.539L367.159 226.614Z" fill="#D0C2C2"/>
<path id="Vector_14" d="M109 425.39L324.932 463.004L367.159 226.614C294.804 264.95 222.827 252.411 151.227 189L109 425.39Z" fill="#C2B9A0"/>
</g>
<g id="Dot">
<path id="Vector_15" d="M493.64 396.591C489.316 397.851 491.268 404.574 495.599 403.311C499.924 402.05 497.971 395.328 493.64 396.591Z" fill="#FAFAFA"/>
<path id="Vector_16" d="M591.761 532.613C587.437 533.874 589.39 540.596 593.721 539.333C598.045 538.073 596.093 531.35 591.761 532.613Z" fill="#FAFAFA"/>
<path id="Vector_17" d="M542.931 480.301C538.607 481.561 540.56 488.283 544.891 487.021C549.215 485.76 547.263 479.038 542.931 480.301Z" fill="#FAFAFA"/>
<path id="Vector_18" d="M579.372 422.085C575.048 423.346 577.001 430.068 581.332 428.805C585.656 427.544 583.704 420.822 579.372 422.085Z" fill="#FAFAFA"/>
<path id="Vector_19" d="M666.499 386.407C662.175 387.668 664.127 394.39 668.459 393.127C672.783 391.867 670.831 385.144 666.499 386.407Z" fill="#FAFAFA"/>
<path id="Vector_20" d="M328.26 297.591C332.584 298.851 330.632 305.574 326.301 304.311C321.977 303.05 323.929 296.328 328.26 297.591Z" fill="#FAFAFA"/>
<path id="Vector_21" d="M230.139 433.613C234.463 434.874 232.511 441.596 228.179 440.333C223.855 439.073 225.807 432.35 230.139 433.613Z" fill="#FAFAFA"/>
<path id="Vector_22" d="M278.969 381.301C283.293 382.561 281.341 389.284 277.009 388.021C272.685 386.76 274.638 380.038 278.969 381.301Z" fill="#FAFAFA"/>
<path id="Vector_23" d="M242.528 323.085C246.852 324.346 244.9 331.068 240.568 329.805C236.244 328.544 238.197 321.822 242.528 323.085Z" fill="#FAFAFA"/>
<path id="Vector_24" d="M155.401 287.407C159.725 288.668 157.773 295.39 153.442 294.127C149.117 292.867 151.07 286.144 155.401 287.407Z" fill="#FAFAFA"/>
</g>
</g>
</svg>
