<svg width="842" height="739" viewBox="0 0 842 739" fill="none" xmlns="http://www.w3.org/2000/svg">
<rect width="842" height="739" fill="white"/>
<g id="undraw_Beer_celebration_cefj 1">
<g id="circle">
<path id="Vector" opacity="0.4" d="M413.353 658.5C562.193 658.5 682.853 537.841 682.853 389C682.853 240.159 562.193 119.5 413.353 119.5C264.512 119.5 143.853 240.159 143.853 389C143.853 537.841 264.512 658.5 413.353 658.5Z" stroke="#3AD29F" stroke-width="5" stroke-miterlimit="10" stroke-dasharray="12 12"/>
<path id="Vector_2" opacity="0.4" d="M413.353 594.5C526.847 594.5 618.853 502.495 618.853 389C618.853 275.505 526.847 183.5 413.353 183.5C299.858 183.5 207.853 275.505 207.853 389C207.853 502.495 299.858 594.5 413.353 594.5Z" stroke="#3AD29F" stroke-width="5" stroke-miterlimit="10" stroke-dasharray="12 12"/>
</g>
<g id="cup-2">
<path id="cup-2-handheld" d="M708.033 297.524L694.31 219.725L411.673 269.582L465.553 575.023C468.126 589.609 476.387 602.574 488.52 611.068C500.652 619.563 515.662 622.889 530.247 620.316L702.897 589.861C710.119 588.587 717.019 585.903 723.203 581.963C729.388 578.022 734.736 572.902 738.942 566.894C743.148 560.887 746.129 554.11 747.716 546.95C749.302 539.791 749.463 532.389 748.189 525.167L741.735 488.574C767.069 484.105 789.591 469.755 804.346 448.68C819.1 427.606 824.878 401.533 820.409 376.198C815.94 350.864 801.59 328.342 780.515 313.587C759.441 298.833 733.368 293.055 708.033 297.524ZM737.739 465.924L712.029 320.174C721.599 318.485 731.409 318.698 740.897 320.8C750.385 322.903 759.366 326.853 767.327 332.426C775.289 338 782.074 345.087 787.297 353.283C792.519 361.478 796.076 370.623 797.764 380.193C799.452 389.764 799.239 399.573 797.136 409.061C795.033 418.549 791.082 427.53 785.508 435.491C779.934 443.452 772.847 450.237 764.65 455.458C756.454 460.68 747.31 464.236 737.739 465.924Z" fill="#BDC0C3"/>
<g id="cup-2-alcohol">
<path id="Vector_3" d="M659.436 235.016L441.796 273.407L465.769 409.309L683.409 370.918L659.436 235.016Z" fill="#D0EC94" fill-opacity="0.85"/>
<path id="Vector_4" d="M454.13 343.328C454.13 343.328 502.096 321.666 552.608 343.219C603.12 364.772 671.77 304.936 671.77 304.936L683.401 370.871L531.459 419.046L487.028 414.698L454.13 343.328Z" fill="#D0EC94"/>
<path id="Vector_5" d="M714.33 546.211L496.691 584.603L454.13 343.328C527.057 382.455 599.603 369.658 671.77 304.936L714.33 546.211Z" fill="#D0EC94"/>
</g>
<g id="cup-2-bubble">
<path id="Vector_6" opacity="0.03" d="M708.25 213.027C701.839 191.042 629.807 192.706 547.361 216.745C464.915 240.783 403.276 278.093 409.686 300.079C413.596 313.488 441.923 318.095 482.128 314.198C480.714 320.128 481.436 326.366 484.167 331.815C486.898 337.265 491.463 341.577 497.059 343.994C502.655 346.41 508.924 346.777 514.764 345.028C520.603 343.28 525.639 339.528 528.986 334.434C538.639 354.061 554.501 365.837 568.081 361.878C582.943 357.545 589.986 335.85 585.365 311.487C592.851 317.341 601.3 319.798 609.136 317.513C618.69 314.727 625.225 305.51 627.636 293.443C633.658 296.663 640.031 297.707 646.043 295.954C653.747 293.708 659.492 287.282 662.693 278.551C669.05 295.857 683.701 306.571 696.631 302.801C710.372 298.794 716.964 279.951 711.355 260.714C708.377 250.499 702.557 242.227 695.697 237.315C705.586 228.302 710.257 219.913 708.25 213.027Z" fill="black"/>
<path id="Vector_7" d="M705.348 203.075C698.938 181.09 626.905 182.754 544.459 206.793C462.013 230.831 400.374 268.141 406.784 290.127C410.694 303.536 439.021 308.142 479.226 304.246C477.812 310.176 478.535 316.414 481.266 321.863C483.997 327.313 488.562 331.625 494.158 334.042C499.754 336.458 506.023 336.825 511.862 335.076C517.702 333.328 522.738 329.576 526.085 324.482C535.737 344.109 551.599 355.885 565.179 351.926C580.041 347.592 587.085 325.898 582.463 301.535C589.949 307.389 598.398 309.846 606.235 307.561C615.789 304.775 622.323 295.557 624.734 283.49C630.757 286.71 637.129 287.755 643.141 286.002C650.845 283.756 656.59 277.329 659.791 268.598C666.149 285.905 680.799 296.618 693.729 292.848C707.47 288.842 714.063 269.999 708.454 250.762C705.475 240.547 699.656 232.275 692.795 227.363C702.685 218.35 707.356 209.961 705.348 203.075Z" fill="#FAFAFA"/>
</g>
<g id="cup-2-dot">
<path id="Vector_8" d="M493.64 396.591C489.316 397.851 491.268 404.574 495.599 403.311C499.924 402.05 497.971 395.328 493.64 396.591Z" fill="#FAFAFA"/>
<path id="Vector_9" d="M591.761 532.613C587.437 533.874 589.39 540.596 593.721 539.333C598.045 538.073 596.093 531.35 591.761 532.613Z" fill="#FAFAFA"/>
<path id="Vector_10" d="M542.931 480.301C538.607 481.561 540.56 488.283 544.891 487.021C549.215 485.76 547.263 479.038 542.931 480.301Z" fill="#FAFAFA"/>
<path id="Vector_11" d="M579.372 422.085C575.048 423.346 577.001 430.068 581.332 428.805C585.656 427.544 583.704 420.822 579.372 422.085Z" fill="#FAFAFA"/>
<path id="Vector_12" d="M666.499 386.407C662.175 387.668 664.127 394.39 668.459 393.127C672.783 391.867 670.831 385.144 666.499 386.407Z" fill="#FAFAFA"/>
</g>
</g>
<g id="cup-1">
<path id="cup-1-handheld" d="M1.49106 277.198C-2.97796 302.533 2.80028 328.606 17.5546 349.68C32.309 370.755 54.8308 385.105 80.1657 389.574L73.7108 426.167C71.138 440.752 74.4645 455.762 82.9585 467.894C91.4525 480.027 104.418 488.288 119.003 490.861L291.653 521.316C298.875 522.59 306.277 522.429 313.436 520.842C320.596 519.256 327.373 516.274 333.38 512.068C339.388 507.863 344.508 502.515 348.449 496.33C352.389 490.146 355.073 483.245 356.347 476.023L410.227 170.582L127.59 120.725L113.867 198.524C88.5319 194.055 62.4594 199.833 41.3849 214.587C20.3103 229.342 5.96011 251.864 1.49106 277.198ZM24.1414 281.194C25.8295 271.624 29.3861 262.48 34.608 254.284C39.83 246.089 46.615 239.002 54.5758 233.429C62.5366 227.855 71.5171 223.905 81.0048 221.802C90.4924 219.699 100.301 219.486 109.871 221.174L84.1612 366.924C64.8335 363.515 47.6519 352.567 36.396 336.489C25.1401 320.412 20.732 300.522 24.1414 281.194Z" fill="#BDC0C4"/>
<g id="cup-1-alcohol">
<path id="Vector_13" d="M138.49 271.915L356.131 310.307L380.104 174.405L162.463 136.012L138.49 271.915Z" fill="#D0EC94" fill-opacity="0.85"/>
<path id="Vector_14" d="M367.77 244.328C367.77 244.328 319.804 222.666 269.292 244.219C218.78 265.772 150.13 205.936 150.13 205.936L138.5 271.871L290.441 320.046L334.872 315.698L367.77 244.328Z" fill="#D0EC94"/>
<path id="Vector_15" d="M107.57 447.211L325.21 485.603L367.77 244.328C294.843 283.455 222.297 270.658 150.13 205.936L107.57 447.211Z" fill="#D0EC94"/>
</g>
<g id="cup-1-bubble">
<path id="Vector_16" d="M116.552 104.075C122.963 82.0897 194.995 83.754 277.441 107.793C359.887 131.831 421.526 169.141 415.116 191.127C411.206 204.536 382.879 209.142 342.674 205.246C344.088 211.176 343.366 217.414 340.635 222.863C337.904 228.313 333.339 232.625 327.743 235.042C322.147 237.458 315.878 237.825 310.038 236.076C304.199 234.328 299.163 230.576 295.816 225.482C286.163 245.109 270.301 256.885 256.721 252.926C241.859 248.592 234.815 226.898 239.437 202.535C231.951 208.389 223.502 210.846 215.666 208.561C206.112 205.775 199.577 196.557 197.166 184.49C191.143 187.71 184.771 188.755 178.759 187.002C171.055 184.756 165.31 178.329 162.109 169.599C155.752 186.905 141.101 197.618 128.171 193.848C114.43 189.842 107.838 170.999 113.447 151.762C116.425 141.547 122.244 133.275 129.105 128.363C119.216 119.35 114.545 110.961 116.552 104.075Z" fill="#FAFAFA"/>
</g>
<g id="cup-1-dot">
<path id="Vector_17" d="M328.26 297.591C332.584 298.851 330.632 305.574 326.301 304.311C321.977 303.05 323.929 296.328 328.26 297.591Z" fill="#FAFAFA"/>
<path id="Vector_18" d="M230.139 433.613C234.463 434.874 232.511 441.596 228.179 440.333C223.855 439.073 225.808 432.35 230.139 433.613Z" fill="#FAFAFA"/>
<path id="Vector_19" d="M278.969 381.301C283.293 382.561 281.341 389.284 277.009 388.021C272.685 386.76 274.638 380.038 278.969 381.301Z" fill="#FAFAFA"/>
<path id="Vector_20" d="M242.528 323.085C246.852 324.346 244.9 331.068 240.568 329.805C236.244 328.544 238.196 321.822 242.528 323.085Z" fill="#FAFAFA"/>
<path id="Vector_21" d="M155.401 287.407C159.725 288.668 157.773 295.39 153.442 294.127C149.117 292.867 151.07 286.144 155.401 287.407Z" fill="#FAFAFA"/>
</g>
</g>
</g>
</svg>
