<svg width="733" height="639" viewBox="0 0 733 639" fill="none" xmlns="http://www.w3.org/2000/svg">
<rect width="733" height="639" fill="white"/>
<g id="having_fun 1">
<g id="guy-1">
<path id="Vector" d="M266.339 478.955H279.937L286.406 426.505L266.336 426.506L266.339 478.955Z" fill="#9F616A"/>
<path id="Vector_2" d="M262.87 474.516L289.65 474.515H289.651C294.177 474.515 298.518 476.313 301.718 479.514C304.919 482.714 306.717 487.055 306.717 491.581V492.135L262.871 492.137L262.87 474.516Z" fill="#2F2E41"/>
<path id="Vector_3" d="M257.79 291.616C257.79 291.616 251.897 298.278 261.655 324.246L259.936 466.636L291.56 466.019L298.512 396.562L311.168 295.205L257.79 291.616Z" fill="#2F2E41"/>
<path id="Vector_4" d="M322.014 311.302L321.668 311.249C281.212 305.079 250.683 299.164 250.379 299.105L250 299.032L260.605 273.237C260.521 270.542 258.226 194.852 262.62 173.106C266.875 152.054 286.928 148.604 289.213 148.279L291.508 140.677L320.497 155.761L325.552 173.162L326.579 220.852L322.014 311.302Z" fill="#3F3D56"/>
<path id="Vector_5" d="M339.896 132.133C346.117 120.753 341.935 106.485 330.555 100.264C319.175 94.043 304.907 98.2253 298.686 109.605C292.465 120.985 296.647 135.253 308.027 141.474C319.407 147.695 333.676 143.513 339.896 132.133Z" fill="#9F616A"/>
<path id="Vector_6" d="M297.205 102.096L296.067 99.8042L301.795 96.9581C301.795 96.9581 308.114 86.676 319.549 89.5655C330.984 92.455 336.129 94.1843 336.129 94.1843L341.843 97.0594L338.975 99.9127L344.12 101.642L340.683 103.35L344.682 105.648L342.529 117.431C342.529 117.431 338.953 108.494 332.079 111.91C325.206 115.325 312.632 110.144 312.632 110.144L301.708 131.285C301.708 131.285 299.455 123.874 295.437 125.85C295.437 125.85 285.172 109.503 297.205 102.096Z" fill="#2F2E41"/>
<g id="guy-1-arm">
<path id="Vector_7" d="M347.173 159.079C345.802 159.217 344.423 159.249 343.048 159.175C342.813 159.15 342.578 159.217 342.393 159.363C342.207 159.509 342.087 159.722 342.057 159.956L339.426 179.696C339.223 181.129 338.636 182.48 337.728 183.607C336.979 184.503 336.422 185.544 336.092 186.664C335.762 187.785 335.666 188.961 335.809 190.12V223.652C335.809 223.652 335.639 228.123 339.075 228.123C343.186 228.639 347.346 228.639 351.457 228.123C351.457 228.123 354.208 227.602 354.208 223.477V190.46C354.418 189.308 354.374 188.124 354.081 186.991C353.788 185.857 353.252 184.801 352.51 183.895C351.632 182.765 351.064 181.424 350.863 180.007L348.13 159.854C348.099 159.628 347.982 159.421 347.805 159.277C347.627 159.133 347.401 159.062 347.173 159.079Z" fill="white"/>
<g id="guy-1-beer" class="beer-raising">
<path id="Vector_8" d="M345.254 229.075C343.176 229.075 341.1 228.946 339.038 228.689C338.577 228.699 338.12 228.615 337.693 228.44C337.267 228.266 336.881 228.005 336.56 227.674C335.162 226.222 335.24 223.736 335.244 223.63L335.243 190.155C335.097 188.924 335.204 187.676 335.556 186.488C335.909 185.3 336.5 184.196 337.293 183.244C338.135 182.198 338.678 180.945 338.865 179.617L341.496 159.881C341.547 159.502 341.744 159.157 342.046 158.92C342.347 158.683 342.728 158.573 343.109 158.613C344.445 158.683 345.785 158.651 347.117 158.516L347.132 158.515C347.504 158.488 347.872 158.603 348.161 158.838C348.451 159.072 348.64 159.408 348.69 159.777L351.424 179.931C351.612 181.249 352.14 182.496 352.957 183.548C353.743 184.509 354.313 185.629 354.626 186.83C354.94 188.032 354.99 189.287 354.774 190.51V223.476C354.774 228.018 351.595 228.673 351.563 228.679C349.47 228.943 347.363 229.075 345.254 229.075ZM342.971 159.738C342.886 159.734 342.804 159.761 342.739 159.815C342.674 159.868 342.631 159.944 342.619 160.027L339.986 179.771C339.77 181.306 339.142 182.755 338.168 183.962C337.468 184.8 336.948 185.773 336.639 186.82C336.33 187.867 336.238 188.967 336.371 190.051L336.375 190.12V223.652C336.374 223.694 336.314 225.79 337.378 226.892C337.598 227.116 337.863 227.291 338.155 227.406C338.448 227.52 338.761 227.572 339.075 227.557L339.145 227.561C343.21 228.072 347.322 228.072 351.387 227.561C351.44 227.548 353.642 227.046 353.642 223.476L353.651 190.358C353.847 189.287 353.807 188.186 353.535 187.132C353.262 186.078 352.763 185.096 352.072 184.254C351.129 183.043 350.519 181.606 350.303 180.087L347.569 159.93C347.557 159.848 347.514 159.772 347.45 159.719C347.385 159.666 347.303 159.639 347.22 159.643C345.824 159.783 344.419 159.815 343.017 159.74C343.002 159.739 342.986 159.738 342.971 159.738H342.971Z" fill="#3F3D56"/>
<path id="Vector_9" d="M343.019 190.72H347.19C348.849 190.72 350.439 191.379 351.612 192.552C352.785 193.725 353.444 195.315 353.444 196.974V212.667C353.444 214.326 352.785 215.916 351.612 217.089C350.439 218.262 348.849 218.921 347.19 218.921H343.019C341.361 218.921 339.77 218.262 338.597 217.089C337.425 215.916 336.766 214.326 336.766 212.667V196.974C336.766 196.153 336.927 195.339 337.242 194.581C337.556 193.822 338.017 193.133 338.597 192.552C339.178 191.971 339.867 191.511 340.626 191.196C341.385 190.882 342.198 190.72 343.019 190.72Z" fill="#B7DB4F"/>
<path id="Vector_10" d="M339.474 213.144C338.168 213.144 336.877 213.414 335.681 213.937C334.485 214.46 333.41 215.225 332.524 216.184H283.799L265.951 219.983L268.881 242.584L332.371 228.93C333.422 230.117 334.754 231.022 336.245 231.562C337.736 232.102 339.338 232.26 340.905 232.022C342.473 231.783 343.956 231.156 345.219 230.197C346.481 229.238 347.484 227.978 348.135 226.532C348.785 225.086 349.063 223.5 348.943 221.919C348.823 220.338 348.309 218.812 347.448 217.481C346.587 216.15 345.406 215.055 344.013 214.298C342.62 213.54 341.059 213.144 339.474 213.144H339.474Z" fill="#9F616A"/>
</g>

</g>
</g>
<g id="guy-2">
<path id="Vector_12" d="M505.391 401.814L493.312 401.813L487.565 359.131L505.393 359.132L505.391 401.814Z" fill="#FFB7B7"/>
<path id="Vector_13" d="M508.471 412.54L469.523 412.539V412.088C469.523 408.405 471.121 404.872 473.964 402.268C476.807 399.663 480.662 398.2 484.683 398.2H484.684L508.472 398.201L508.471 412.54Z" fill="#2F2E41"/>
<path id="Vector_14" d="M439.378 401.814L427.299 401.813L421.552 359.131L439.38 359.132L439.378 401.814Z" fill="#FFB7B7"/>
<path id="Vector_15" d="M439.503 412.54L400.555 412.539V412.088C400.555 408.405 402.152 404.872 404.995 402.268C407.838 399.663 411.694 398.2 415.714 398.2H415.715L439.504 398.201L439.503 412.54Z" fill="#2F2E41"/>
<path id="Vector_16" d="M438.388 221.545L426.565 246.497L416.812 389.921L441.444 389.018L448.171 320.648L468.924 259.753L480.854 327.641L485.781 387.213L506.162 388.021L514.284 221.545H438.388Z" fill="#2F2E41"/>
<path id="Vector_17" d="M497.489 98.4155L463.221 99.2007L443.103 108.662L441.999 178.467L429.451 226.662C429.451 226.662 507.849 231.605 518.687 224.384L505.879 169.325L523.058 109.823L497.489 98.4155Z" fill="#4F5342"/>
<path id="Vector_18" d="M522.521 238.484C521.734 237.626 521.162 236.62 520.846 235.537C520.529 234.455 520.475 233.321 520.688 232.218C520.901 231.114 521.376 230.067 522.078 229.149C522.781 228.232 523.695 227.466 524.755 226.907L519.193 200.143L533.459 205.589L536.554 230.17C537.461 231.864 537.658 233.805 537.107 235.623C536.557 237.442 535.298 239.012 533.568 240.037C531.839 241.062 529.759 241.47 527.723 241.183C525.687 240.897 523.836 239.937 522.521 238.484V238.484Z" fill="#FFB7B7"/>
<path id="Vector_19" d="M517.902 110.656L521.562 109.565C521.562 109.565 533.174 116.392 532.069 132.896C532.069 132.896 532.504 141.437 532.088 147.121C531.612 153.64 538 218.426 538 218.426H517.309L508.442 159.757L517.902 110.656Z" fill="#4F5342"/>
<path id="Vector_20" d="M505.901 69.1292C505.901 73.4333 504.508 77.6407 501.897 81.2194C499.287 84.7981 495.577 87.5873 491.237 89.2344C486.896 90.8815 482.12 91.3125 477.512 90.4728C472.904 89.6331 468.671 87.5605 465.349 84.5171C462.027 81.4736 459.764 77.5961 458.848 73.3747C457.931 69.1534 458.401 64.7778 460.199 60.8014C461.997 56.8249 465.042 53.4262 468.949 51.035C472.855 48.6438 477.448 47.3675 482.146 47.3675V47.3675C488.43 47.3531 494.464 49.6264 498.919 53.6871C503.373 57.7479 505.885 63.2636 505.901 69.0208C505.901 69.0569 505.901 69.0931 505.901 69.1292Z" fill="#FFB7B7"/>
<path id="Vector_21" d="M458.47 39.8993C461.253 34.4176 466.638 35.5014 471.348 37.3595C477.312 36.1476 482.984 32.5192 489.41 34.665C495.74 43.099 516.992 40.6176 512.471 54.3482C512.465 57.6384 519.229 55.7233 518.048 61.1118C521.631 71.4819 505.114 91.1214 495.633 86.9857C497.978 83.0485 503.334 74.1059 495.21 73.219C477.732 88.1169 493.406 44.8498 471.446 57.4326C464.175 63.5286 454.22 45.9969 458.47 39.8993Z" fill="#2F2E41"/>
<g id="guy-2-arm" class="beer-raising">
<path id="Vector_22" d="M448.394 109.819L445.204 107.846C445.204 107.846 431.988 111.474 428.082 127.618C428.082 127.618 425.093 135.718 423.782 141.286C422.277 147.674 389.059 206.343 389.059 206.343L408.947 211.569L445.41 157.55L448.394 109.819Z" fill="#4F5342"/>
<path id="Vector_23" d="M397.9 229.533C398.915 228.907 399.767 228.084 400.398 227.124C401.028 226.163 401.421 225.087 401.548 223.973C401.676 222.858 401.535 221.731 401.135 220.672C400.736 219.612 400.088 218.646 399.237 217.841L412.64 193.519L397.288 195.15L386.914 217.996C385.532 219.396 384.759 221.211 384.74 223.098C384.722 224.985 385.459 226.813 386.814 228.235C388.168 229.657 390.044 230.574 392.088 230.814C394.131 231.053 396.199 230.597 397.9 229.533V229.533Z" fill="#FFB7B7"/>
<g id="guy-2-beer">
<path id="Vector_24" d="M392.829 160.571C391.477 160.695 390.116 160.724 388.76 160.657C388.528 160.634 388.296 160.695 388.114 160.827C387.931 160.959 387.812 161.152 387.783 161.363L385.187 179.199C384.988 180.493 384.409 181.714 383.513 182.732C382.774 183.542 382.225 184.482 381.899 185.495C381.574 186.507 381.479 187.57 381.621 188.617V218.914C381.621 218.914 381.453 222.954 384.841 222.954C388.896 223.421 392.999 223.421 397.054 222.954C397.054 222.954 399.767 222.483 399.767 218.756V188.924C399.974 187.883 399.931 186.814 399.642 185.79C399.353 184.765 398.824 183.811 398.092 182.993C397.226 181.971 396.666 180.76 396.468 179.48L393.772 161.271C393.741 161.066 393.627 160.88 393.452 160.75C393.276 160.62 393.054 160.556 392.829 160.571V160.571Z" fill="white"/>
<path id="Vector_25" d="M390.936 223.814C388.886 223.814 386.839 223.698 384.805 223.465C384.351 223.475 383.899 223.398 383.479 223.241C383.058 223.083 382.678 222.847 382.361 222.548C380.982 221.237 381.059 218.99 381.063 218.895L381.063 188.649C380.919 187.536 381.024 186.409 381.371 185.336C381.719 184.262 382.302 183.264 383.085 182.404C383.914 181.46 384.45 180.327 384.635 179.127L387.23 161.295C387.28 160.952 387.475 160.641 387.771 160.427C388.068 160.213 388.445 160.113 388.82 160.149C390.138 160.213 391.46 160.184 392.773 160.062L392.788 160.061C393.155 160.036 393.518 160.141 393.803 160.353C394.089 160.565 394.275 160.868 394.325 161.202L397.021 179.411C397.206 180.602 397.728 181.729 398.533 182.679C399.309 183.547 399.87 184.559 400.18 185.645C400.489 186.73 400.539 187.865 400.325 188.97V218.756C400.325 222.859 397.19 223.451 397.158 223.456C395.094 223.694 393.016 223.814 390.936 223.814V223.814ZM388.684 161.166C388.601 161.162 388.519 161.187 388.455 161.235C388.391 161.284 388.349 161.352 388.337 161.428L385.741 179.266C385.527 180.654 384.907 181.962 383.947 183.053C383.257 183.81 382.744 184.689 382.439 185.635C382.134 186.582 382.044 187.575 382.175 188.554L382.179 188.617V218.914C382.178 218.952 382.119 220.846 383.168 221.842C383.385 222.044 383.646 222.202 383.935 222.306C384.223 222.409 384.532 222.456 384.841 222.442L384.911 222.446C388.92 222.907 392.976 222.907 396.984 222.446C397.037 222.435 399.209 221.981 399.209 218.756L399.218 188.833C399.411 187.865 399.372 186.87 399.103 185.917C398.834 184.965 398.342 184.077 397.66 183.317C396.731 182.222 396.129 180.924 395.915 179.552L393.219 161.34C393.207 161.265 393.165 161.197 393.102 161.149C393.038 161.101 392.957 161.077 392.875 161.08C391.498 161.206 390.112 161.236 388.73 161.168C388.714 161.167 388.699 161.166 388.684 161.166V161.166Z" fill="#3F3D56"/>
<path id="Vector_26" d="M388.732 189.159H392.845C394.481 189.159 396.05 189.755 397.207 190.814C398.363 191.874 399.013 193.311 399.013 194.81V208.989C399.013 210.488 398.363 211.925 397.207 212.984C396.05 214.044 394.481 214.639 392.845 214.639H388.732C387.096 214.639 385.527 214.044 384.37 212.984C383.214 211.925 382.564 210.488 382.564 208.989V194.81C382.564 193.311 383.214 191.874 384.37 190.814C385.527 189.755 387.096 189.159 388.732 189.159Z" fill="#B7DB4F"/>
</g>
</g>
</g>
<g id="girl-2">
<path id="Vector_27" d="M456.554 248.087L444.6 234.112C444.26 233.714 444.009 233.248 443.866 232.745C443.723 232.242 443.69 231.715 443.77 231.198C443.849 230.681 444.039 230.188 444.328 229.751C444.616 229.315 444.994 228.945 445.439 228.668L461.002 218.949C463.051 217.224 465.702 216.38 468.374 216.603C471.046 216.825 473.52 218.096 475.255 220.135C476.989 222.175 477.842 224.818 477.626 227.483C477.41 230.149 476.143 232.621 474.103 234.357L462.076 248.117C461.731 248.511 461.306 248.826 460.828 249.041C460.35 249.256 459.832 249.366 459.308 249.363C458.784 249.36 458.267 249.245 457.791 249.025C457.316 248.804 456.894 248.485 456.554 248.087V248.087Z" fill="#CBCBCB"/>
<g id="girl-2-feet" class="walking">
<path id="Vector_28" d="M424.408 532.77L409.384 532.769L402.237 474.964L424.411 474.965L424.408 532.77Z" fill="#9F616A"/>
<path id="Vector_29" d="M428.239 547.297L379.797 547.295V546.684C379.797 541.696 381.784 536.912 385.32 533.385C388.856 529.857 393.652 527.876 398.652 527.875H398.653L428.24 527.877L428.239 547.297Z" fill="#8EB0CF"/>
<path id="Vector_30" d="M544.499 532.77L529.476 532.769L522.329 474.964L544.503 474.965L544.499 532.77Z" fill="#9F616A"/>
<path id="Vector_31" d="M548.331 547.297L499.889 547.295V546.684C499.889 541.696 501.876 536.912 505.412 533.385C508.948 529.857 513.743 527.876 518.744 527.875H518.745L548.332 527.877L548.331 547.297Z" fill="#8EB0CF"/>
</g>
<path id="Vector_32" d="M504.089 278.729L519.232 222.916L499.586 211.9H472.164L461.498 223.283C461.498 223.283 443.679 235.651 447.992 249.354L454.95 280.565L444.308 330.135L390.692 404.308L378 477.165L427.961 490.23L481.987 384.112L508.181 501.613L556.912 499.168L540.12 356.699C540.12 356.699 535.333 313.297 510.242 286.198L504.089 278.729Z" fill="#8EB0CF"/>
<path id="Vector_33" d="M535.363 328.111C536.208 327.277 536.858 326.267 537.27 325.155C537.681 324.042 537.842 322.853 537.743 321.671C537.644 320.489 537.286 319.343 536.695 318.314C536.103 317.285 535.293 316.398 534.321 315.715L522.571 236.641L505.706 241.953L522.588 318.11C521.547 319.815 521.168 321.842 521.525 323.807C521.881 325.772 522.948 327.538 524.523 328.771C526.097 330.004 528.07 330.618 530.068 330.496C532.066 330.374 533.95 329.526 535.363 328.111Z" fill="#9F616A"/>
<path id="Vector_34" d="M525.475 249.051L507.18 251.155C506.659 251.215 506.132 251.162 505.633 251.001C505.135 250.839 504.678 250.572 504.292 250.218C503.907 249.864 503.602 249.431 503.4 248.949C503.197 248.467 503.101 247.947 503.117 247.424L503.71 229.118C503.418 226.46 504.195 223.794 505.87 221.706C507.545 219.619 509.982 218.278 512.646 217.98C515.31 217.681 517.985 218.449 520.082 220.114C522.18 221.779 523.53 224.206 523.837 226.863L528.58 244.496C528.715 245.001 528.74 245.529 528.653 246.044C528.565 246.56 528.367 247.05 528.073 247.482C527.778 247.915 527.394 248.279 526.945 248.549C526.497 248.82 525.996 248.991 525.475 249.051V249.051Z" fill="#CBCBCB"/>
<path id="Vector_35" d="M455.209 196.028V172.512C455.209 164.154 458.537 156.139 464.461 150.23C470.386 144.32 478.421 141 486.799 141C495.177 141 503.211 144.32 509.136 150.23C515.06 156.139 518.388 164.154 518.388 172.512V196.028C518.387 197.15 517.939 198.226 517.144 199.02C516.348 199.813 515.27 200.26 514.145 200.261H459.453C458.327 200.26 457.249 199.813 456.453 199.02C455.658 198.226 455.21 197.15 455.209 196.028Z" fill="#2F2E41"/>
<path id="Vector_36" d="M491.416 196.882C502.64 190.762 506.765 176.724 500.629 165.528C494.494 154.332 480.422 150.218 469.198 156.338C457.975 162.458 453.85 176.496 459.985 187.692C466.121 198.888 480.193 203.003 491.416 196.882Z" fill="#9F616A"/>
<path id="Vector_37" d="M447.736 174.393C447.743 167.784 450.379 161.448 455.063 156.775C459.748 152.102 466.099 149.473 472.724 149.466H477.44C484.065 149.473 490.416 152.102 495.101 156.775C499.785 161.448 502.421 167.784 502.428 174.393V174.863H492.464L489.065 165.371L488.386 174.863H483.236L481.522 170.074L481.179 174.863H447.736V174.393Z" fill="#2F2E41"/>
<path id="Vector_38" d="M478.028 202.905C477.56 202.274 477.281 201.523 477.222 200.739C477.163 199.956 477.327 199.172 477.696 198.478C482.692 188.998 489.688 171.481 480.402 160.678L479.735 159.902H506.692V200.275L482.203 204.585C481.955 204.628 481.704 204.651 481.452 204.651C480.784 204.651 480.125 204.493 479.53 204.189C478.934 203.886 478.42 203.446 478.028 202.905Z" fill="#2F2E41"/>
<g id="girl-2-arm" class="beer-raising">
<path id="Vector_39" d="M394.081 304.23C395.247 304.464 396.45 304.44 397.605 304.16C398.76 303.88 399.84 303.35 400.768 302.609C401.696 301.867 402.45 300.932 402.976 299.869C403.503 298.805 403.789 297.64 403.815 296.454L465.261 238.761L451.435 227.76L395.279 288.075C393.279 288.163 391.382 288.981 389.945 290.372C388.509 291.762 387.635 293.631 387.487 295.622C387.339 297.613 387.929 299.589 389.145 301.176C390.36 302.762 392.117 303.849 394.081 304.23Z" fill="#9F616A"/>
<g id="girl-2-beer" class="beer-raising">
<path id="Vector_40" d="M400.001 241.952C398.609 242.092 397.207 242.125 395.81 242.049C395.571 242.023 395.332 242.092 395.144 242.24C394.956 242.388 394.833 242.604 394.803 242.841L392.129 262.848C391.924 264.301 391.328 265.67 390.404 266.812C389.643 267.72 389.078 268.775 388.742 269.911C388.407 271.047 388.309 272.239 388.455 273.414V307.4C388.455 307.4 388.283 311.931 391.773 311.931C395.95 312.455 400.177 312.455 404.354 311.931C404.354 311.931 407.149 311.404 407.149 307.222V273.758C407.362 272.591 407.318 271.391 407.02 270.242C406.722 269.093 406.178 268.022 405.424 267.104C404.531 265.959 403.955 264.6 403.75 263.164L400.973 242.738C400.942 242.508 400.824 242.299 400.643 242.153C400.463 242.007 400.233 241.935 400.001 241.952Z" fill="white"/>
<path id="Vector_41" d="M398.051 312.897C395.94 312.897 393.831 312.766 391.736 312.505C391.268 312.516 390.802 312.43 390.369 312.253C389.936 312.076 389.544 311.812 389.218 311.477C387.797 310.005 387.877 307.485 387.881 307.378L387.88 273.449C387.732 272.201 387.84 270.937 388.198 269.732C388.556 268.528 389.157 267.409 389.963 266.444C390.818 265.385 391.37 264.115 391.56 262.768L394.233 242.765C394.285 242.38 394.486 242.031 394.792 241.791C395.097 241.551 395.485 241.439 395.872 241.479C397.23 241.551 398.591 241.518 399.944 241.381L399.96 241.38C400.337 241.353 400.711 241.47 401.005 241.707C401.299 241.945 401.492 242.286 401.543 242.66L404.32 263.087C404.511 264.423 405.048 265.686 405.878 266.752C406.677 267.726 407.256 268.861 407.574 270.079C407.893 271.297 407.944 272.57 407.724 273.809V307.222C407.724 311.825 404.494 312.489 404.461 312.495C402.335 312.762 400.194 312.896 398.051 312.897ZM395.731 242.62C395.646 242.616 395.562 242.643 395.496 242.698C395.43 242.752 395.386 242.829 395.374 242.913L392.699 262.924C392.48 264.481 391.841 265.948 390.852 267.172C390.141 268.022 389.612 269.008 389.298 270.069C388.984 271.13 388.891 272.245 389.026 273.343L389.03 273.414V307.4C389.029 307.442 388.968 309.567 390.049 310.684C390.273 310.911 390.542 311.088 390.839 311.204C391.136 311.32 391.454 311.373 391.773 311.358L391.845 311.362C395.974 311.879 400.153 311.879 404.282 311.362C404.337 311.349 406.574 310.84 406.574 307.222L406.583 273.655C406.782 272.57 406.742 271.454 406.465 270.385C406.188 269.317 405.681 268.321 404.979 267.468C404.021 266.24 403.401 264.784 403.181 263.244L400.403 242.815C400.391 242.731 400.348 242.655 400.283 242.601C400.217 242.547 400.134 242.52 400.049 242.524C398.63 242.665 397.203 242.698 395.779 242.622C395.763 242.621 395.747 242.62 395.731 242.62Z" fill="#3F3D56"/>
<path id="Vector_42" d="M395.781 274.022H400.019C401.704 274.022 403.32 274.69 404.511 275.878C405.703 277.067 406.372 278.679 406.372 280.36V296.266C406.372 297.947 405.703 299.559 404.511 300.748C403.32 301.937 401.704 302.604 400.019 302.604H395.781C394.096 302.604 392.479 301.937 391.288 300.748C390.096 299.559 389.427 297.947 389.427 296.266V280.36C389.427 278.679 390.096 277.067 391.288 275.878C392.479 274.69 394.096 274.022 395.781 274.022Z" fill="#B7DB4F"/>
</g>
</g>
</g>
<g id="girl-1">
<path id="Vector_43" d="M276.02 297.002C275.689 296.872 242.733 284.053 222.491 294.535L221.993 294.793L217.955 274.916L215.654 232.181L230.627 225.106L234.749 215.871L262.83 214.21L268.6 222.123L288.247 228.562L276.505 297.194L276.02 297.002Z" fill="#AF8181"/>
<g id="girl-1-feet" class="walking">
<path id="Vector_44" d="M207.899 534.619H221.703L228.27 481.376L207.897 481.377L207.899 534.619Z" fill="#FFB7B7"/>
<path id="Vector_45" d="M204.379 530.113L231.563 530.112H231.564C236.159 530.112 240.565 531.937 243.814 535.186C247.062 538.435 248.888 542.841 248.888 547.435V547.998L204.379 548L204.379 530.113Z" fill="#2F2E41"/>
<path id="Vector_46" d="M333.242 534.312L345.936 528.89L331.059 477.347L312.325 485.351L333.242 534.312Z" fill="#FFB7B7"/>
<path id="Vector_47" d="M328.233 531.551L353.232 520.871L353.233 520.871C357.458 519.066 362.227 519.014 366.491 520.725C370.755 522.437 374.164 525.772 375.97 529.997L376.191 530.514L335.261 548L328.233 531.551Z" fill="#2F2E41"/>
</g>
<path id="Vector_48" d="M322.961 524.955L349.562 519.498L307.045 402.179L292.494 362.164C292.494 362.164 283.265 330.079 279.095 317.663L276.579 301.003L217.01 307.597C217.01 307.597 200.373 332.03 205.427 371.856L203.141 521.545L229.742 522.909L252.024 371.94L291.13 454.7C291.13 454.7 303.456 490.017 312.275 497.672L322.961 524.955Z" fill="#2F2E41"/>
<path id="Vector_49" d="M274.995 291.198L275.993 307.373L246.816 310.496L216.286 313.763L225.271 289.201L274.995 291.198Z" fill="#FFB7B7"/>
<path id="Vector_50" d="M240.898 313.153C240.43 313.142 239.961 313.168 239.497 313.23L211.707 281.747L214.94 272.071L200.974 265.284L193.587 281.857C192.99 283.196 192.844 284.692 193.17 286.122C193.496 287.551 194.276 288.836 195.395 289.783L231.845 320.669C231.567 322.452 231.839 324.278 232.624 325.903C233.409 327.529 234.67 328.876 236.24 329.767C237.81 330.658 239.613 331.05 241.411 330.891C243.209 330.732 244.916 330.029 246.305 328.876C247.694 327.723 248.699 326.175 249.186 324.437C249.673 322.699 249.62 320.854 249.033 319.147C248.446 317.44 247.354 315.952 245.9 314.882C244.447 313.811 242.703 313.208 240.898 313.153Z" fill="#FFB7B7"/>
<path id="Vector_51" d="M198.458 269.948L209.323 239.002C210.544 235.354 212.074 233.138 213.87 232.415C214.224 232.256 214.607 232.172 214.995 232.168C215.383 232.164 215.768 232.241 216.125 232.394L220.996 238.549L225.518 257.542L213.925 284.811L198.458 269.948Z" fill="#E4E4E4"/>
<path id="Vector_52" d="M270.37 207.806H222.675C221.694 207.805 220.754 207.414 220.06 206.721C219.366 206.027 218.976 205.086 218.975 204.105V183.547C218.975 176.241 221.877 169.235 227.044 164.068C232.21 158.902 239.217 156 246.523 156C253.829 156 260.835 158.902 266.002 164.068C271.168 169.235 274.07 176.241 274.07 183.547V204.105C274.069 205.086 273.679 206.027 272.985 206.721C272.291 207.414 271.351 207.805 270.37 207.806Z" fill="#2F2E41"/>
<path id="Vector_53" d="M252.183 207.327C263.338 207.327 272.38 198.285 272.38 187.13C272.38 175.976 263.338 166.933 252.183 166.933C241.029 166.933 231.986 175.976 231.986 187.13C231.986 198.285 241.029 207.327 252.183 207.327Z" fill="#FFB7B7"/>
<path id="Vector_54" d="M280.587 185.603H251.423L251.124 181.416L249.629 185.603H245.138L244.546 177.305L241.582 185.603H232.893V185.192C232.899 179.415 235.197 173.876 239.283 169.791C243.368 165.705 248.907 163.407 254.684 163.401H258.796C264.573 163.407 270.112 165.705 274.197 169.791C278.283 173.876 280.581 179.415 280.587 185.192L280.587 185.603Z" fill="#2F2E41"/>
<path id="Vector_55" d="M251.185 211.643C250.965 211.643 250.746 211.624 250.53 211.585L229.175 207.818V172.524H252.683L252.1 173.203C244.003 182.646 250.104 197.959 254.461 206.247C254.782 206.854 254.925 207.539 254.874 208.224C254.822 208.909 254.579 209.565 254.171 210.117C253.829 210.59 253.381 210.974 252.861 211.24C252.342 211.505 251.768 211.643 251.185 211.643Z" fill="#2F2E41"/>
<g id="girl-1-arm">
<path id="girl-1-left-arm" d="M277.052 258.428L280.525 231.137L288.434 228.73L288.567 228.779C288.749 228.846 293.048 230.492 294.224 236.442C295.353 242.154 303.859 277.696 303.944 278.055L304.03 278.41L284.046 286.406L277.052 258.428Z" fill="#E4E4E4"/>
<g id="girl-1-left-beer" class="beer-raising">
<path id="Vector_56" d="M344.752 279.664C344.425 280 344.125 280.361 343.856 280.744L301.874 279.717L296.977 270.768L282.505 276.394L289.635 293.079C290.211 294.427 291.209 295.552 292.479 296.285C293.748 297.017 295.221 297.318 296.677 297.142L344.107 291.413C345.226 292.829 346.75 293.871 348.475 294.401C350.201 294.93 352.047 294.922 353.768 294.376C355.488 293.831 357.002 292.775 358.108 291.348C359.214 289.922 359.859 288.192 359.958 286.39C360.057 284.588 359.604 282.798 358.661 281.259C357.718 279.72 356.329 278.504 354.678 277.774C353.027 277.044 351.193 276.834 349.42 277.171C347.647 277.509 346.019 278.378 344.752 279.664H344.752Z" fill="#FFB7B7"/>
<path id="Vector_57" d="M346.242 242.118C344.911 242.252 343.571 242.283 342.235 242.211C342.008 242.186 341.779 242.252 341.599 242.394C341.42 242.536 341.303 242.742 341.274 242.97L338.718 262.14C338.521 263.531 337.952 264.844 337.069 265.937C336.342 266.808 335.801 267.819 335.48 268.907C335.16 269.995 335.067 271.137 335.206 272.263V304.827C335.206 304.827 335.041 309.169 338.377 309.169C342.37 309.67 346.41 309.67 350.402 309.169C350.402 309.169 353.073 308.663 353.073 304.657V272.593C353.277 271.474 353.235 270.325 352.951 269.224C352.666 268.123 352.145 267.097 351.425 266.218C350.572 265.12 350.021 263.818 349.825 262.442L347.171 242.871C347.141 242.651 347.028 242.45 346.855 242.311C346.683 242.171 346.463 242.102 346.242 242.118Z" fill="white"/>
<path id="Vector_58" d="M344.378 310.094C342.36 310.094 340.344 309.968 338.342 309.718C337.894 309.729 337.45 309.647 337.036 309.477C336.621 309.308 336.247 309.054 335.935 308.733C334.577 307.323 334.653 304.908 334.657 304.806L334.656 272.297C334.515 271.101 334.618 269.89 334.961 268.736C335.303 267.582 335.877 266.51 336.647 265.585C337.464 264.57 337.992 263.353 338.174 262.063L340.729 242.897C340.779 242.528 340.97 242.194 341.262 241.964C341.555 241.734 341.925 241.627 342.295 241.665C343.593 241.733 344.894 241.702 346.187 241.571L346.202 241.57C346.563 241.544 346.92 241.656 347.201 241.884C347.483 242.111 347.666 242.438 347.715 242.796L350.37 262.368C350.553 263.648 351.066 264.859 351.859 265.88C352.623 266.814 353.176 267.901 353.48 269.068C353.785 270.235 353.833 271.454 353.623 272.642V304.656C353.623 309.067 350.536 309.703 350.505 309.709C348.473 309.965 346.426 310.093 344.378 310.094ZM342.161 242.758C342.079 242.754 341.999 242.78 341.936 242.832C341.872 242.884 341.831 242.958 341.819 243.039L339.263 262.212C339.053 263.704 338.442 265.11 337.497 266.283C336.817 267.097 336.312 268.041 336.012 269.058C335.712 270.075 335.623 271.143 335.752 272.196L335.756 272.263V304.827C335.755 304.867 335.696 306.904 336.729 307.973C336.943 308.191 337.2 308.361 337.484 308.472C337.768 308.583 338.073 308.634 338.377 308.619L338.446 308.624C342.393 309.119 346.387 309.119 350.334 308.624C350.386 308.611 352.524 308.123 352.524 304.656L352.533 272.494C352.723 271.454 352.684 270.385 352.42 269.361C352.155 268.337 351.67 267.383 351 266.566C350.084 265.39 349.492 263.995 349.281 262.519L346.626 242.945C346.615 242.864 346.573 242.791 346.511 242.74C346.448 242.688 346.368 242.662 346.287 242.666C344.931 242.801 343.567 242.833 342.206 242.76C342.191 242.759 342.176 242.758 342.161 242.758Z" fill="#3F3D56"/>
<path id="Vector_59" d="M342.208 272.846H346.258C347.869 272.846 349.414 273.486 350.553 274.625C351.692 275.763 352.332 277.308 352.332 278.919V294.159C352.332 295.77 351.692 297.315 350.553 298.454C349.414 299.592 347.869 300.232 346.258 300.232H342.208C340.597 300.232 339.053 299.592 337.914 298.454C336.775 297.315 336.135 295.77 336.135 294.159V278.919C336.135 277.308 336.775 275.763 337.914 274.625C339.053 273.486 340.597 272.846 342.208 272.846Z" fill="#B7DB4F"/>
</g>
</g>
</g>
</g>
</svg>
